<svg viewBox="0 0 340 430" xmlns="http://www.w3.org/2000/svg"><rect x="19.25" y="14" width="301.5" height="402" fill="#141519" stroke="rgba(255,255,255,0.18)" rx="3"/><rect x="19.3" y="14.0" width="301.5" height="6.3" fill="#b5a183" fill-opacity="0.9"/><rect x="19.3" y="409.7" width="301.5" height="6.3" fill="#b5a183" fill-opacity="0.9"/><rect x="19.3" y="20.3" width="6.3" height="389.4" fill="#c6b699" fill-opacity="0.9"/><rect x="314.5" y="20.3" width="6.3" height="389.4" fill="#c6b699" fill-opacity="0.9"/><rect x="25.5" y="20.0" width="288.9" height="3.0" fill="#9c8662" fill-opacity="0.75"/><rect x="25.5" y="407.0" width="288.9" height="3.0" fill="#9c8662" fill-opacity="0.75"/><rect x="25.3" y="21.5" width="3.0" height="386.9" fill="#a68e68" fill-opacity="0.75"/><rect x="311.7" y="21.5" width="3.0" height="386.9" fill="#a68e68" fill-opacity="0.75"/><rect x="24.3" y="19.0" width="291.4" height="7.5" fill="#b5a17b" fill-opacity="0.3"/><rect x="24.3" y="403.4" width="291.4" height="7.5" fill="#b5a17b" fill-opacity="0.3"/><rect x="24.3" y="21.5" width="7.5" height="386.9" fill="#b5a17b" fill-opacity="0.3"/><rect x="308.2" y="21.5" width="7.5" height="386.9" fill="#b5a17b" fill-opacity="0.3"/><rect x="29.6" y="21.3" width="9.5" height="6.0" fill="#cbb99a" fill-opacity="0.9"/><rect x="74.8" y="21.3" width="9.5" height="6.0" fill="#cbb99a" fill-opacity="0.9"/><rect x="120.0" y="21.3" width="9.5" height="6.0" fill="#cbb99a" fill-opacity="0.9"/><rect x="165.2" y="21.3" width="9.5" height="6.0" fill="#cbb99a" fill-opacity="0.9"/><rect x="210.5" y="21.3" width="9.5" height="6.0" fill="#cbb99a" fill-opacity="0.9"/><rect x="255.7" y="21.3" width="9.5" height="6.0" fill="#cbb99a" fill-opacity="0.9"/><rect x="300.9" y="21.3" width="9.5" height="6.0" fill="#cbb99a" fill-opacity="0.9"/><rect x="28.3" y="22.3" width="12.1" height="7.5" fill="#a58a50" fill-opacity="0.3"/><rect x="73.5" y="22.3" width="12.1" height="7.5" fill="#a58a50" fill-opacity="0.3"/><rect x="118.7" y="22.3" width="12.1" height="7.5" fill="#a58a50" fill-opacity="0.3"/><rect x="164.0" y="22.3" width="12.1" height="7.5" fill="#a58a50" fill-opacity="0.3"/><rect x="209.2" y="22.3" width="12.1" height="7.5" fill="#a58a50" fill-opacity="0.3"/><rect x="254.4" y="22.3" width="12.1" height="7.5" fill="#a58a50" fill-opacity="0.3"/><rect x="299.6" y="22.3" width="12.1" height="7.5" fill="#a58a50" fill-opacity="0.3"/><rect x="41.2" y="20.9" width="31.4" height="1.3" fill="#bbaa8d" fill-opacity="0.3"/><rect x="86.5" y="20.9" width="31.4" height="1.3" fill="#bbaa8d" fill-opacity="0.3"/><rect x="131.7" y="20.9" width="31.4" height="1.3" fill="#bbaa8d" fill-opacity="0.3"/><rect x="176.9" y="20.9" width="31.4" height="1.3" fill="#bbaa8d" fill-opacity="0.3"/><rect x="222.1" y="20.9" width="31.4" height="1.3" fill="#bbaa8d" fill-opacity="0.3"/><rect x="267.4" y="20.9" width="31.4" height="1.3" fill="#bbaa8d" fill-opacity="0.3"/><rect x="40.4" y="21.9" width="1.2" height="1.8" fill="#a28b5c" fill-opacity="0.3"/><rect x="85.6" y="21.9" width="1.2" height="1.8" fill="#a28b5c" fill-opacity="0.3"/><rect x="130.9" y="21.9" width="1.2" height="1.8" fill="#a28b5c" fill-opacity="0.3"/><rect x="176.1" y="21.9" width="1.2" height="1.8" fill="#a28b5c" fill-opacity="0.3"/><rect x="221.3" y="21.9" width="1.2" height="1.8" fill="#a28b5c" fill-opacity="0.3"/><rect x="266.5" y="21.9" width="1.2" height="1.8" fill="#a28b5c" fill-opacity="0.3"/><rect x="72.6" y="21.9" width="1.2" height="1.8" fill="#a28b5c" fill-opacity="0.3"/><rect x="117.8" y="21.9" width="1.2" height="1.8" fill="#a28b5c" fill-opacity="0.3"/><rect x="163.0" y="21.9" width="1.2" height="1.8" fill="#a28b5c" fill-opacity="0.3"/><rect x="208.3" y="21.9" width="1.2" height="1.8" fill="#a28b5c" fill-opacity="0.3"/><rect x="253.5" y="21.9" width="1.2" height="1.8" fill="#a28b5c" fill-opacity="0.3"/><rect x="298.7" y="21.9" width="1.2" height="1.8" fill="#a28b5c" fill-opacity="0.3"/><rect x="40.5" y="21.9" width="32.9" height="1.8" fill="#a28b5c" fill-opacity="0.16"/><rect x="85.7" y="21.9" width="32.9" height="1.8" fill="#a28b5c" fill-opacity="0.16"/><rect x="130.9" y="21.9" width="32.9" height="1.8" fill="#a28b5c" fill-opacity="0.16"/><rect x="176.2" y="21.9" width="32.9" height="1.8" fill="#a28b5c" fill-opacity="0.16"/><rect x="221.4" y="21.9" width="32.9" height="1.8" fill="#a28b5c" fill-opacity="0.16"/><rect x="266.6" y="21.9" width="32.9" height="1.8" fill="#a28b5c" fill-opacity="0.16"/><rect x="40.5" y="21.9" width="32.9" height="1.8" fill="#a28b5c" fill-opacity="0.16"/><rect x="85.7" y="21.9" width="32.9" height="1.8" fill="#a28b5c" fill-opacity="0.16"/><rect x="130.9" y="21.9" width="32.9" height="1.8" fill="#a28b5c" fill-opacity="0.16"/><rect x="176.2" y="21.9" width="32.9" height="1.8" fill="#a28b5c" fill-opacity="0.16"/><rect x="221.4" y="21.9" width="32.9" height="1.8" fill="#a28b5c" fill-opacity="0.16"/><rect x="266.6" y="21.9" width="32.9" height="1.8" fill="#a28b5c" fill-opacity="0.16"/><rect x="25.5" y="20.8" width="288.9" height="4.0" fill="#c2af8e" fill-opacity="0.75"/><rect x="25.5" y="406.5" width="288.9" height="4.0" fill="#c2af8e" fill-opacity="0.75"/><rect x="26.0" y="47.9" width="4.0" height="47.7" fill="#a98d53" fill-opacity="0.3"/><rect x="26.0" y="143.4" width="4.0" height="47.7" fill="#a98d53" fill-opacity="0.3"/><rect x="26.0" y="238.9" width="4.0" height="47.7" fill="#a98d53" fill-opacity="0.3"/><rect x="26.0" y="334.3" width="4.0" height="47.7" fill="#a98d53" fill-opacity="0.3"/><rect x="30.2" y="50.9" width="1.2" height="41.7" fill="#918974" fill-opacity="0.3"/><rect x="30.2" y="146.4" width="1.2" height="41.7" fill="#918974" fill-opacity="0.3"/><rect x="30.2" y="241.9" width="1.2" height="41.7" fill="#918974" fill-opacity="0.3"/><rect x="30.2" y="337.4" width="1.2" height="41.7" fill="#918974" fill-opacity="0.3"/><rect x="309.9" y="47.9" width="4.0" height="47.7" fill="#a98d53" fill-opacity="0.3"/><rect x="309.9" y="143.4" width="4.0" height="47.7" fill="#a98d53" fill-opacity="0.3"/><rect x="309.9" y="238.9" width="4.0" height="47.7" fill="#a98d53" fill-opacity="0.3"/><rect x="309.9" y="334.3" width="4.0" height="47.7" fill="#a98d53" fill-opacity="0.3"/><rect x="309.1" y="50.9" width="1.2" height="41.7" fill="#918974" fill-opacity="0.3"/><rect x="309.1" y="146.4" width="1.2" height="41.7" fill="#918974" fill-opacity="0.3"/><rect x="309.1" y="241.9" width="1.2" height="41.7" fill="#918974" fill-opacity="0.3"/><rect x="309.1" y="337.4" width="1.2" height="41.7" fill="#918974" fill-opacity="0.3"/><rect x="26.4" y="114.8" width="8.3" height="9.5" fill="#d3c3a7" fill-opacity="0.9"/><rect x="26.4" y="210.2" width="8.3" height="9.5" fill="#d3c3a7" fill-opacity="0.9"/><rect x="26.4" y="305.7" width="8.3" height="9.5" fill="#d3c3a7" fill-opacity="0.9"/><rect x="26.4" y="401.2" width="8.3" height="9.5" fill="#d3c3a7" fill-opacity="0.9"/><rect x="305.3" y="114.8" width="8.3" height="9.5" fill="#d3c3a7" fill-opacity="0.9"/><rect x="305.3" y="210.2" width="8.3" height="9.5" fill="#d3c3a7" fill-opacity="0.9"/><rect x="305.3" y="305.7" width="8.3" height="9.5" fill="#d3c3a7" fill-opacity="0.9"/><rect x="305.3" y="401.2" width="8.3" height="9.5" fill="#d3c3a7" fill-opacity="0.9"/><rect x="28.0" y="34.9" width="283.9" height="1.2" fill="#b09361" fill-opacity="0.16"/><rect x="28.0" y="67.6" width="283.9" height="1.2" fill="#b09361" fill-opacity="0.16"/><rect x="28.0" y="100.2" width="283.9" height="1.2" fill="#b09361" fill-opacity="0.16"/><rect x="28.0" y="132.9" width="283.9" height="1.2" fill="#b09361" fill-opacity="0.16"/><rect x="28.0" y="165.6" width="283.9" height="1.2" fill="#b09361" fill-opacity="0.16"/><rect x="28.0" y="198.2" width="283.9" height="1.2" fill="#b09361" fill-opacity="0.16"/><rect x="28.0" y="230.9" width="283.9" height="1.2" fill="#b09361" fill-opacity="0.16"/><rect x="28.0" y="263.6" width="283.9" height="1.2" fill="#b09361" fill-opacity="0.16"/><rect x="28.0" y="296.2" width="283.9" height="1.2" fill="#b09361" fill-opacity="0.16"/><rect x="28.0" y="328.9" width="283.9" height="1.2" fill="#b09361" fill-opacity="0.16"/><rect x="28.0" y="361.5" width="283.9" height="1.2" fill="#b09361" fill-opacity="0.16"/><rect x="28.0" y="394.2" width="283.9" height="1.2" fill="#b09361" fill-opacity="0.16"/><rect x="38.9" y="26.6" width="1.2" height="376.9" fill="#b09361" fill-opacity="0.16"/><rect x="71.6" y="26.6" width="1.2" height="376.9" fill="#b09361" fill-opacity="0.16"/><rect x="104.2" y="26.6" width="1.2" height="376.9" fill="#b09361" fill-opacity="0.16"/><rect x="136.9" y="26.6" width="1.2" height="376.9" fill="#b09361" fill-opacity="0.16"/><rect x="169.6" y="26.6" width="1.2" height="376.9" fill="#b09361" fill-opacity="0.16"/><rect x="202.2" y="26.6" width="1.2" height="376.9" fill="#b09361" fill-opacity="0.16"/><rect x="234.9" y="26.6" width="1.2" height="376.9" fill="#b09361" fill-opacity="0.16"/><rect x="267.5" y="26.6" width="1.2" height="376.9" fill="#b09361" fill-opacity="0.16"/><rect x="300.2" y="26.6" width="1.2" height="376.9" fill="#b09361" fill-opacity="0.16"/><rect x="77.4" y="40.8" width="21.9" height="21.9" fill="#9f7c4c" fill-opacity="0.16"/><rect x="77.4" y="73.4" width="21.9" height="21.9" fill="#9f7c4c" fill-opacity="0.16"/><rect x="77.4" y="106.1" width="21.9" height="21.9" fill="#9f7c4c" fill-opacity="0.16"/><rect x="77.4" y="138.7" width="21.9" height="21.9" fill="#9f7c4c" fill-opacity="0.16"/><rect x="77.4" y="171.4" width="21.9" height="21.9" fill="#9f7c4c" fill-opacity="0.16"/><rect x="77.4" y="204.1" width="21.9" height="21.9" fill="#9f7c4c" fill-opacity="0.16"/><rect x="77.4" y="236.7" width="21.9" height="21.9" fill="#9f7c4c" fill-opacity="0.16"/><rect x="77.4" y="269.4" width="21.9" height="21.9" fill="#9f7c4c" fill-opacity="0.16"/><rect x="77.4" y="302.1" width="21.9" height="21.9" fill="#9f7c4c" fill-opacity="0.16"/><rect x="77.4" y="334.7" width="21.9" height="21.9" fill="#9f7c4c" fill-opacity="0.16"/><rect x="77.4" y="367.4" width="21.9" height="21.9" fill="#9f7c4c" fill-opacity="0.16"/><rect x="142.7" y="40.8" width="21.9" height="21.9" fill="#9f7c4c" fill-opacity="0.16"/><rect x="142.7" y="73.4" width="21.9" height="21.9" fill="#9f7c4c" fill-opacity="0.16"/><rect x="142.7" y="106.1" width="21.9" height="21.9" fill="#9f7c4c" fill-opacity="0.16"/><rect x="142.7" y="138.7" width="21.9" height="21.9" fill="#9f7c4c" fill-opacity="0.16"/><rect x="142.7" y="171.4" width="21.9" height="21.9" fill="#9f7c4c" fill-opacity="0.16"/><rect x="142.7" y="204.1" width="21.9" height="21.9" fill="#9f7c4c" fill-opacity="0.16"/><rect x="142.7" y="236.7" width="21.9" height="21.9" fill="#9f7c4c" fill-opacity="0.16"/><rect x="142.7" y="269.4" width="21.9" height="21.9" fill="#9f7c4c" fill-opacity="0.16"/><rect x="142.7" y="302.1" width="21.9" height="21.9" fill="#9f7c4c" fill-opacity="0.16"/><rect x="142.7" y="334.7" width="21.9" height="21.9" fill="#9f7c4c" fill-opacity="0.16"/><rect x="142.7" y="367.4" width="21.9" height="21.9" fill="#9f7c4c" fill-opacity="0.16"/><rect x="208.1" y="40.8" width="21.9" height="21.9" fill="#9f7c4c" fill-opacity="0.16"/><rect x="208.1" y="73.4" width="21.9" height="21.9" fill="#9f7c4c" fill-opacity="0.16"/><rect x="208.1" y="106.1" width="21.9" height="21.9" fill="#9f7c4c" fill-opacity="0.16"/><rect x="208.1" y="138.7" width="21.9" height="21.9" fill="#9f7c4c" fill-opacity="0.16"/><rect x="208.1" y="171.4" width="21.9" height="21.9" fill="#9f7c4c" fill-opacity="0.16"/><rect x="208.1" y="204.1" width="21.9" height="21.9" fill="#9f7c4c" fill-opacity="0.16"/><rect x="208.1" y="236.7" width="21.9" height="21.9" fill="#9f7c4c" fill-opacity="0.16"/><rect x="208.1" y="269.4" width="21.9" height="21.9" fill="#9f7c4c" fill-opacity="0.16"/><rect x="208.1" y="302.1" width="21.9" height="21.9" fill="#9f7c4c" fill-opacity="0.16"/><rect x="208.1" y="334.7" width="21.9" height="21.9" fill="#9f7c4c" fill-opacity="0.16"/><rect x="208.1" y="367.4" width="21.9" height="21.9" fill="#9f7c4c" fill-opacity="0.16"/><rect x="35.5" y="68.6" width="13.8" height="41.5" fill="#a88a48" fill-opacity="0.75"/><rect x="35.5" y="184.2" width="13.8" height="41.5" fill="#a88a48" fill-opacity="0.75"/><rect x="35.5" y="299.8" width="13.8" height="41.5" fill="#a88a48" fill-opacity="0.75"/><rect x="290.7" y="68.6" width="13.8" height="41.5" fill="#a88a48" fill-opacity="0.75"/><rect x="290.7" y="184.2" width="13.8" height="41.5" fill="#a88a48" fill-opacity="0.75"/><rect x="290.7" y="299.8" width="13.8" height="41.5" fill="#a88a48" fill-opacity="0.75"/><rect x="33.6" y="66.8" width="17.6" height="45.2" fill="#b8ac8d" fill-opacity="0.75"/><rect x="33.6" y="182.3" width="17.6" height="45.2" fill="#b8ac8d" fill-opacity="0.75"/><rect x="33.6" y="297.9" width="17.6" height="45.2" fill="#b8ac8d" fill-opacity="0.75"/><rect x="288.8" y="66.8" width="17.6" height="45.2" fill="#b8ac8d" fill-opacity="0.75"/><rect x="288.8" y="182.3" width="17.6" height="45.2" fill="#b8ac8d" fill-opacity="0.75"/><rect x="288.8" y="297.9" width="17.6" height="45.2" fill="#b8ac8d" fill-opacity="0.75"/><circle cx="47.4" cy="73.8" r="2.1" fill="#a18549" fill-opacity="0.75"/><circle cx="47.4" cy="189.4" r="2.1" fill="#a18549" fill-opacity="0.75"/><circle cx="47.4" cy="304.9" r="2.1" fill="#a18549" fill-opacity="0.75"/><circle cx="47.4" cy="105.0" r="2.1" fill="#a18549" fill-opacity="0.75"/><circle cx="47.4" cy="220.5" r="2.1" fill="#a18549" fill-opacity="0.75"/><circle cx="47.4" cy="336.1" r="2.1" fill="#a18549" fill-opacity="0.75"/><circle cx="292.6" cy="73.8" r="2.1" fill="#a18549" fill-opacity="0.75"/><circle cx="292.6" cy="189.4" r="2.1" fill="#a18549" fill-opacity="0.75"/><circle cx="292.6" cy="304.9" r="2.1" fill="#a18549" fill-opacity="0.75"/><circle cx="292.6" cy="105.0" r="2.1" fill="#a18549" fill-opacity="0.75"/><circle cx="292.6" cy="220.5" r="2.1" fill="#a18549" fill-opacity="0.75"/><circle cx="292.6" cy="336.1" r="2.1" fill="#a18549" fill-opacity="0.75"/><circle cx="62.0" cy="129.6" r="5.3" fill="#b89a55" fill-opacity="0.75"/><circle cx="278.0" cy="129.6" r="5.3" fill="#b89a55" fill-opacity="0.75"/><circle cx="62.0" cy="129.6" r="1.2" fill="#b89a55" fill-opacity="0.75"/><circle cx="278.0" cy="129.6" r="1.2" fill="#b89a55" fill-opacity="0.75"/><circle cx="62.0" cy="129.6" r="10.8" fill="#bda263" fill-opacity="0.16"/><circle cx="278.0" cy="129.6" r="10.8" fill="#bda263" fill-opacity="0.16"/><circle cx="51.9" cy="129.6" r="1.2" fill="#e5d9b7" fill-opacity="0.75"/><circle cx="56.9" cy="129.6" r="1.2" fill="#e5d9b7" fill-opacity="0.75"/><circle cx="62.0" cy="129.6" r="1.2" fill="#e5d9b7" fill-opacity="0.75"/><circle cx="67.0" cy="129.6" r="1.2" fill="#e5d9b7" fill-opacity="0.75"/><circle cx="72.0" cy="129.6" r="1.2" fill="#e5d9b7" fill-opacity="0.75"/><circle cx="51.9" cy="129.6" r="1.2" fill="#fff0bd" fill-opacity="0.75"/><circle cx="56.9" cy="129.6" r="1.2" fill="#fff0bd" fill-opacity="0.75"/><circle cx="62.0" cy="129.6" r="1.2" fill="#fff0bd" fill-opacity="0.75"/><circle cx="67.0" cy="129.6" r="1.2" fill="#fff0bd" fill-opacity="0.75"/><circle cx="72.0" cy="129.6" r="1.2" fill="#fff0bd" fill-opacity="0.75"/><circle cx="268.0" cy="129.6" r="1.2" fill="#e5d9b7" fill-opacity="0.75"/><circle cx="273.0" cy="129.6" r="1.2" fill="#e5d9b7" fill-opacity="0.75"/><circle cx="278.0" cy="129.6" r="1.2" fill="#e5d9b7" fill-opacity="0.75"/><circle cx="283.1" cy="129.6" r="1.2" fill="#e5d9b7" fill-opacity="0.75"/><circle cx="288.1" cy="129.6" r="1.2" fill="#e5d9b7" fill-opacity="0.75"/><circle cx="268.0" cy="129.6" r="1.2" fill="#fff0bd" fill-opacity="0.75"/><circle cx="273.0" cy="129.6" r="1.2" fill="#fff0bd" fill-opacity="0.75"/><circle cx="278.0" cy="129.6" r="1.2" fill="#fff0bd" fill-opacity="0.75"/><circle cx="283.1" cy="129.6" r="1.2" fill="#fff0bd" fill-opacity="0.75"/><circle cx="288.1" cy="129.6" r="1.2" fill="#fff0bd" fill-opacity="0.75"/><circle cx="56.9" cy="27.1" r="2.4" fill="#aa9056" fill-opacity="0.75"/><circle cx="102.2" cy="27.1" r="2.4" fill="#aa9056" fill-opacity="0.75"/><circle cx="147.4" cy="27.1" r="2.4" fill="#aa9056" fill-opacity="0.75"/><circle cx="192.6" cy="27.1" r="2.4" fill="#aa9056" fill-opacity="0.75"/><circle cx="237.8" cy="27.1" r="2.4" fill="#aa9056" fill-opacity="0.75"/><circle cx="283.1" cy="27.1" r="2.4" fill="#aa9056" fill-opacity="0.75"/><circle cx="56.9" cy="31.6" r="5.4" fill="#b49a60" fill-opacity="0.16"/><circle cx="102.2" cy="31.6" r="5.4" fill="#b49a60" fill-opacity="0.16"/><circle cx="147.4" cy="31.6" r="5.4" fill="#b49a60" fill-opacity="0.16"/><circle cx="192.6" cy="31.6" r="5.4" fill="#b49a60" fill-opacity="0.16"/><circle cx="237.8" cy="31.6" r="5.4" fill="#b49a60" fill-opacity="0.16"/><circle cx="283.1" cy="31.6" r="5.4" fill="#b49a60" fill-opacity="0.16"/><circle cx="51.9" cy="31.6" r="1.2" fill="#eadbb5" fill-opacity="0.3"/><circle cx="97.1" cy="31.6" r="1.2" fill="#eadbb5" fill-opacity="0.3"/><circle cx="142.4" cy="31.6" r="1.2" fill="#eadbb5" fill-opacity="0.3"/><circle cx="187.6" cy="31.6" r="1.2" fill="#eadbb5" fill-opacity="0.3"/><circle cx="232.8" cy="31.6" r="1.2" fill="#eadbb5" fill-opacity="0.3"/><circle cx="278.0" cy="31.6" r="1.2" fill="#eadbb5" fill-opacity="0.3"/><circle cx="62.0" cy="31.6" r="1.2" fill="#eadbb5" fill-opacity="0.3"/><circle cx="107.2" cy="31.6" r="1.2" fill="#eadbb5" fill-opacity="0.3"/><circle cx="152.4" cy="31.6" r="1.2" fill="#eadbb5" fill-opacity="0.3"/><circle cx="197.6" cy="31.6" r="1.2" fill="#eadbb5" fill-opacity="0.3"/><circle cx="242.9" cy="31.6" r="1.2" fill="#eadbb5" fill-opacity="0.3"/><circle cx="288.1" cy="31.6" r="1.2" fill="#eadbb5" fill-opacity="0.3"/><circle cx="51.9" cy="31.6" r="1.2" fill="#fff0bb" fill-opacity="0.3"/><circle cx="97.1" cy="31.6" r="1.2" fill="#fff0bb" fill-opacity="0.3"/><circle cx="142.4" cy="31.6" r="1.2" fill="#fff0bb" fill-opacity="0.3"/><circle cx="187.6" cy="31.6" r="1.2" fill="#fff0bb" fill-opacity="0.3"/><circle cx="232.8" cy="31.6" r="1.2" fill="#fff0bb" fill-opacity="0.3"/><circle cx="278.0" cy="31.6" r="1.2" fill="#fff0bb" fill-opacity="0.3"/><circle cx="62.0" cy="31.6" r="1.2" fill="#fff0bb" fill-opacity="0.3"/><circle cx="107.2" cy="31.6" r="1.2" fill="#fff0bb" fill-opacity="0.3"/><circle cx="152.4" cy="31.6" r="1.2" fill="#fff0bb" fill-opacity="0.3"/><circle cx="197.6" cy="31.6" r="1.2" fill="#fff0bb" fill-opacity="0.3"/><circle cx="242.9" cy="31.6" r="1.2" fill="#fff0bb" fill-opacity="0.3"/><circle cx="288.1" cy="31.6" r="1.2" fill="#fff0bb" fill-opacity="0.3"/><circle cx="170.0" cy="164.8" r="1.2" fill="#af9458" fill-opacity="0.3"/><circle cx="170.0" cy="164.8" r="21.4" fill="#bda066" fill-opacity="0.3"/><circle cx="170.0" cy="164.8" r="11.9" fill="#bda066" fill-opacity="0.16"/><circle cx="151.9" cy="173.5" r="1.3" fill="#e4dac3" fill-opacity="0.3"/><circle cx="156.4" cy="173.5" r="1.3" fill="#e4dac3" fill-opacity="0.3"/><circle cx="161.0" cy="173.5" r="1.3" fill="#e4dac3" fill-opacity="0.3"/><circle cx="165.5" cy="173.5" r="1.3" fill="#e4dac3" fill-opacity="0.3"/><circle cx="170.0" cy="173.5" r="1.3" fill="#e4dac3" fill-opacity="0.3"/><circle cx="174.5" cy="173.5" r="1.3" fill="#e4dac3" fill-opacity="0.3"/><circle cx="179.0" cy="173.5" r="1.3" fill="#e4dac3" fill-opacity="0.3"/><circle cx="183.6" cy="173.5" r="1.3" fill="#e4dac3" fill-opacity="0.3"/><circle cx="188.1" cy="173.5" r="1.3" fill="#e4dac3" fill-opacity="0.3"/><circle cx="151.9" cy="156.0" r="1.2" fill="#e4dac3" fill-opacity="0.3"/><circle cx="156.4" cy="156.0" r="1.2" fill="#e4dac3" fill-opacity="0.3"/><circle cx="161.0" cy="156.0" r="1.2" fill="#e4dac3" fill-opacity="0.3"/><circle cx="165.5" cy="156.0" r="1.2" fill="#e4dac3" fill-opacity="0.3"/><circle cx="170.0" cy="156.0" r="1.2" fill="#e4dac3" fill-opacity="0.3"/><circle cx="174.5" cy="156.0" r="1.2" fill="#e4dac3" fill-opacity="0.3"/><circle cx="179.0" cy="156.0" r="1.2" fill="#e4dac3" fill-opacity="0.3"/><circle cx="183.6" cy="156.0" r="1.2" fill="#e4dac3" fill-opacity="0.3"/><circle cx="188.1" cy="156.0" r="1.2" fill="#e4dac3" fill-opacity="0.3"/><circle cx="170.0" cy="164.8" r="3.5" fill="#d3c7ad" fill-opacity="0.3"/><circle cx="152.7" cy="173.5" r="1.2" fill="#ebddbd" fill-opacity="0.3"/><circle cx="158.4" cy="173.5" r="1.2" fill="#ebddbd" fill-opacity="0.3"/><circle cx="164.2" cy="173.5" r="1.2" fill="#ebddbd" fill-opacity="0.3"/><circle cx="170.0" cy="173.5" r="1.2" fill="#ebddbd" fill-opacity="0.3"/><circle cx="175.8" cy="173.5" r="1.2" fill="#ebddbd" fill-opacity="0.3"/><circle cx="181.6" cy="173.5" r="1.2" fill="#ebddbd" fill-opacity="0.3"/><circle cx="187.3" cy="173.5" r="1.2" fill="#ebddbd" fill-opacity="0.3"/><circle cx="152.7" cy="173.5" r="1.2" fill="#fff1c8" fill-opacity="0.3"/><circle cx="158.4" cy="173.5" r="1.2" fill="#fff1c8" fill-opacity="0.3"/><circle cx="164.2" cy="173.5" r="1.2" fill="#fff1c8" fill-opacity="0.3"/><circle cx="170.0" cy="173.5" r="1.2" fill="#fff1c8" fill-opacity="0.3"/><circle cx="175.8" cy="173.5" r="1.2" fill="#fff1c8" fill-opacity="0.3"/><circle cx="181.6" cy="173.5" r="1.2" fill="#fff1c8" fill-opacity="0.3"/><circle cx="187.3" cy="173.5" r="1.2" fill="#fff1c8" fill-opacity="0.3"/><path d="M 170.0 365.8 L 161.1 341.3 L 178.9 341.3 Z" fill="rgba(240,205,166,0.3)" stroke="#f0cda6" stroke-width="1"/><text x="176" y="379" font-size="8.5" fill="#f0cda6">Photograph</text><path d="M 265.5 358.2 L 243.0 345.1 L 262.0 332.4 Z" fill="rgba(154,160,173,0.16)" stroke="#6b6f7a" stroke-width="1"/><text x="258" y="371" font-size="8.5" fill="#9aa0ad" text-anchor="end">Salon wide</text><path d="M 99.7 305.4 L 105.9 280.2 L 122.6 293.2 Z" fill="rgba(154,160,173,0.16)" stroke="#6b6f7a" stroke-width="1"/><text x="106" y="318" font-size="8.5" fill="#9aa0ad">Low parquet</text><circle cx="170" cy="215" r="6" fill="none" stroke="#e0a468" stroke-width="1.5"/><circle cx="170" cy="215" r="2" fill="#e0a468"/><text x="180" y="218" font-size="9" fill="#f0cda6" >Central parquet</text><circle cx="205.175" cy="96.9125" r="6" fill="none" stroke="#e0a468" stroke-width="1.5"/><circle cx="205.175" cy="96.9125" r="2" fill="#e0a468"/><text x="215.175" y="99.9125" font-size="9" fill="#f0cda6" >Far salon</text></svg>